<?xml version="1.0" encoding="UTF-8" standalone="no"?>
<!DOCTYPE svg PUBLIC "-//W3C//DTD SVG 1.1//EN"
 "http://www.w3.org/Graphics/SVG/1.1/DTD/svg11.dtd">
<!-- Generated by graphviz version 2.47.0 (20210316.0004)
 -->
<!-- Title: dbml Pages: 1 -->
<svg width="1800pt" height="1007pt"
 viewBox="0.00 0.00 1799.68 1006.77" xmlns="http://www.w3.org/2000/svg" xmlns:xlink="http://www.w3.org/1999/xlink">
<g id="graph0" class="graph" transform="scale(1 1) rotate(0) translate(4 1002.77)">
<title>dbml</title>
<!-- Ordinateurs -->
<g id="Ordinateurs" class="node">
<title>Ordinateurs</title>
<ellipse fill="none" stroke="black" stroke-width="0" cx="861.9" cy="-342.24" rx="239" ry="342.48"/>
<polygon fill="#1d71b8" stroke="transparent" points="694.9,-522.24 694.9,-582.24 1028.9,-582.24 1028.9,-522.24 694.9,-522.24"/>
<polygon fill="none" stroke="#29235c" points="694.9,-522.24 694.9,-582.24 1028.9,-582.24 1028.9,-522.24 694.9,-522.24"/>
<text text-anchor="start" x="716.08" y="-543.44" font-family="Helvetica,sans-Serif" font-weight="bold" font-size="32.00" fill="#ffffff"> &#160;&#160;&#160;&#160;&#160;&#160;Ordinateurs &#160;&#160;&#160;&#160;&#160;&#160;</text>
<polygon fill="#e7e2dd" stroke="transparent" points="694.9,-462.24 694.9,-522.24 1028.9,-522.24 1028.9,-462.24 694.9,-462.24"/>
<polygon fill="none" stroke="#29235c" points="694.9,-462.24 694.9,-522.24 1028.9,-522.24 1028.9,-462.24 694.9,-462.24"/>
<text text-anchor="start" x="705.9" y="-483.44" font-family="Helvetica,sans-Serif" font-weight="bold" font-size="32.00" fill="#29235c">OrdinateurID</text>
<text text-anchor="start" x="889.03" y="-483.44" font-family="Helvetica,sans-Serif" font-size="32.00" fill="#29235c"> &#160;&#160;&#160;</text>
<text text-anchor="start" x="966.36" y="-483.44" font-family="Helvetica,sans-Serif" font-style="italic" font-size="32.00" fill="#29235c">INT</text>
<polygon fill="#e7e2dd" stroke="transparent" points="694.9,-402.24 694.9,-462.24 1028.9,-462.24 1028.9,-402.24 694.9,-402.24"/>
<polygon fill="none" stroke="#29235c" points="694.9,-402.24 694.9,-462.24 1028.9,-462.24 1028.9,-402.24 694.9,-402.24"/>
<text text-anchor="start" x="705.9" y="-422.44" font-family="Helvetica,sans-Serif" font-size="32.00" fill="#29235c">UserID &#160;&#160;&#160;</text>
<text text-anchor="start" x="966.36" y="-423.44" font-family="Helvetica,sans-Serif" font-style="italic" font-size="32.00" fill="#29235c">INT</text>
<polygon fill="#e7e2dd" stroke="transparent" points="694.9,-342.24 694.9,-402.24 1028.9,-402.24 1028.9,-342.24 694.9,-342.24"/>
<polygon fill="none" stroke="#29235c" points="694.9,-342.24 694.9,-402.24 1028.9,-402.24 1028.9,-342.24 694.9,-342.24"/>
<text text-anchor="start" x="705.9" y="-362.44" font-family="Helvetica,sans-Serif" font-size="32.00" fill="#29235c">MarqueID &#160;&#160;&#160;</text>
<text text-anchor="start" x="966.36" y="-363.44" font-family="Helvetica,sans-Serif" font-style="italic" font-size="32.00" fill="#29235c">INT</text>
<polygon fill="#e7e2dd" stroke="transparent" points="694.9,-282.24 694.9,-342.24 1028.9,-342.24 1028.9,-282.24 694.9,-282.24"/>
<polygon fill="none" stroke="#29235c" points="694.9,-282.24 694.9,-342.24 1028.9,-342.24 1028.9,-282.24 694.9,-282.24"/>
<text text-anchor="start" x="705.9" y="-302.44" font-family="Helvetica,sans-Serif" font-size="32.00" fill="#29235c">DateAchat &#160;&#160;&#160;</text>
<text text-anchor="start" x="932.57" y="-303.44" font-family="Helvetica,sans-Serif" font-style="italic" font-size="32.00" fill="#29235c">DATE</text>
<polygon fill="#e7e2dd" stroke="transparent" points="694.9,-222.24 694.9,-282.24 1028.9,-282.24 1028.9,-222.24 694.9,-222.24"/>
<polygon fill="none" stroke="#29235c" points="694.9,-222.24 694.9,-282.24 1028.9,-282.24 1028.9,-222.24 694.9,-222.24"/>
<text text-anchor="start" x="705.9" y="-242.44" font-family="Helvetica,sans-Serif" font-size="32.00" fill="#29235c">RAM &#160;&#160;&#160;</text>
<text text-anchor="start" x="966.36" y="-243.44" font-family="Helvetica,sans-Serif" font-style="italic" font-size="32.00" fill="#29235c">INT</text>
<polygon fill="#e7e2dd" stroke="transparent" points="694.9,-162.24 694.9,-222.24 1028.9,-222.24 1028.9,-162.24 694.9,-162.24"/>
<polygon fill="none" stroke="#29235c" points="694.9,-162.24 694.9,-222.24 1028.9,-222.24 1028.9,-162.24 694.9,-162.24"/>
<text text-anchor="start" x="705.9" y="-182.44" font-family="Helvetica,sans-Serif" font-size="32.00" fill="#29235c">Stockage &#160;&#160;&#160;</text>
<text text-anchor="start" x="966.36" y="-183.44" font-family="Helvetica,sans-Serif" font-style="italic" font-size="32.00" fill="#29235c">INT</text>
<polygon fill="#e7e2dd" stroke="transparent" points="694.9,-102.24 694.9,-162.24 1028.9,-162.24 1028.9,-102.24 694.9,-102.24"/>
<polygon fill="none" stroke="#29235c" points="694.9,-102.24 694.9,-162.24 1028.9,-162.24 1028.9,-102.24 694.9,-102.24"/>
<text text-anchor="start" x="705.5" y="-122.44" font-family="Helvetica,sans-Serif" font-size="32.00" fill="#29235c">OS &#160;&#160;&#160;</text>
<text text-anchor="start" x="786.85" y="-123.44" font-family="Helvetica,sans-Serif" font-style="italic" font-size="32.00" fill="#29235c">VARCHAR(100)</text>
<polygon fill="none" stroke="#29235c" stroke-width="2" points="693.9,-101.24 693.9,-583.24 1029.9,-583.24 1029.9,-101.24 693.9,-101.24"/>
</g>
<!-- Logiciels_Installes -->
<g id="Logiciels_Installes" class="node">
<title>Logiciels_Installes</title>
<ellipse fill="none" stroke="black" stroke-width="0" cx="1472.07" cy="-826.24" rx="289.83" ry="172.57"/>
<polygon fill="#1d71b8" stroke="transparent" points="1269.07,-886.24 1269.07,-946.24 1675.07,-946.24 1675.07,-886.24 1269.07,-886.24"/>
<polygon fill="none" stroke="#29235c" points="1269.07,-886.24 1269.07,-946.24 1675.07,-946.24 1675.07,-886.24 1269.07,-886.24"/>
<text text-anchor="start" x="1280.02" y="-907.44" font-family="Helvetica,sans-Serif" font-weight="bold" font-size="32.00" fill="#ffffff"> &#160;&#160;&#160;&#160;&#160;&#160;Logiciels_Installes &#160;&#160;&#160;&#160;&#160;&#160;</text>
<polygon fill="#e7e2dd" stroke="transparent" points="1269.07,-826.24 1269.07,-886.24 1675.07,-886.24 1675.07,-826.24 1269.07,-826.24"/>
<polygon fill="none" stroke="#29235c" points="1269.07,-826.24 1269.07,-886.24 1675.07,-886.24 1675.07,-826.24 1269.07,-826.24"/>
<text text-anchor="start" x="1280.07" y="-846.44" font-family="Helvetica,sans-Serif" font-size="32.00" fill="#29235c">Logiciels_installesID &#160;&#160;&#160;</text>
<text text-anchor="start" x="1612.53" y="-847.44" font-family="Helvetica,sans-Serif" font-style="italic" font-size="32.00" fill="#29235c">INT</text>
<polygon fill="#e7e2dd" stroke="transparent" points="1269.07,-766.24 1269.07,-826.24 1675.07,-826.24 1675.07,-766.24 1269.07,-766.24"/>
<polygon fill="none" stroke="#29235c" points="1269.07,-766.24 1269.07,-826.24 1675.07,-826.24 1675.07,-766.24 1269.07,-766.24"/>
<text text-anchor="start" x="1280.07" y="-786.44" font-family="Helvetica,sans-Serif" font-size="32.00" fill="#29235c">OrdinateurID &#160;&#160;&#160;</text>
<text text-anchor="start" x="1612.53" y="-787.44" font-family="Helvetica,sans-Serif" font-style="italic" font-size="32.00" fill="#29235c">INT</text>
<polygon fill="#e7e2dd" stroke="transparent" points="1269.07,-706.24 1269.07,-766.24 1675.07,-766.24 1675.07,-706.24 1269.07,-706.24"/>
<polygon fill="none" stroke="#29235c" points="1269.07,-706.24 1269.07,-766.24 1675.07,-766.24 1675.07,-706.24 1269.07,-706.24"/>
<text text-anchor="start" x="1280.07" y="-726.44" font-family="Helvetica,sans-Serif" font-size="32.00" fill="#29235c">LogicielID &#160;&#160;&#160;</text>
<text text-anchor="start" x="1612.53" y="-727.44" font-family="Helvetica,sans-Serif" font-style="italic" font-size="32.00" fill="#29235c">INT</text>
<polygon fill="none" stroke="#29235c" stroke-width="2" points="1268.07,-705.24 1268.07,-947.24 1676.07,-947.24 1676.07,-705.24 1268.07,-705.24"/>
</g>
<!-- Ordinateurs&#45;&gt;Logiciels_Installes -->
<!-- Ordinateurs&#45;&gt;Logiciels_Installes -->
<g id="edge4" class="edge">
<title>Ordinateurs:e&#45;&gt;Logiciels_Installes:w</title>
<path fill="none" stroke="#29235c" stroke-width="3" d="M1029.9,-492.24C1198.02,-492.24 1100.63,-783.9 1257.86,-795.86"/>
<polygon fill="#29235c" stroke="#29235c" stroke-width="3" points="1257.95,-799.37 1268.07,-796.24 1258.21,-792.37 1257.95,-799.37"/>
<text text-anchor="middle" x="1274.29" y="-796.24" font-family="Helvetica,sans-Serif" font-size="32.00" fill="#29235c">*</text>
<text text-anchor="middle" x="1021.01" y="-463.44" font-family="Helvetica,sans-Serif" font-size="32.00" fill="#29235c">1</text>
</g>
<!-- Maintenance -->
<g id="Maintenance" class="node">
<title>Maintenance</title>
<ellipse fill="none" stroke="black" stroke-width="0" cx="1472.07" cy="-378.24" rx="319.72" ry="257.27"/>
<polygon fill="#1d71b8" stroke="transparent" points="1248.07,-498.24 1248.07,-558.24 1696.07,-558.24 1696.07,-498.24 1248.07,-498.24"/>
<polygon fill="none" stroke="#29235c" points="1248.07,-498.24 1248.07,-558.24 1696.07,-558.24 1696.07,-498.24 1248.07,-498.24"/>
<text text-anchor="start" x="1318.24" y="-519.44" font-family="Helvetica,sans-Serif" font-weight="bold" font-size="32.00" fill="#ffffff"> &#160;&#160;&#160;&#160;&#160;&#160;Maintenance &#160;&#160;&#160;&#160;&#160;&#160;</text>
<polygon fill="#e7e2dd" stroke="transparent" points="1248.07,-438.24 1248.07,-498.24 1696.07,-498.24 1696.07,-438.24 1248.07,-438.24"/>
<polygon fill="none" stroke="#29235c" points="1248.07,-438.24 1248.07,-498.24 1696.07,-498.24 1696.07,-438.24 1248.07,-438.24"/>
<text text-anchor="start" x="1259.07" y="-459.44" font-family="Helvetica,sans-Serif" font-weight="bold" font-size="32.00" fill="#29235c">MaintenanceID</text>
<text text-anchor="start" x="1474.23" y="-459.44" font-family="Helvetica,sans-Serif" font-size="32.00" fill="#29235c"> &#160;&#160;&#160;</text>
<text text-anchor="start" x="1633.53" y="-459.44" font-family="Helvetica,sans-Serif" font-style="italic" font-size="32.00" fill="#29235c">INT</text>
<polygon fill="#e7e2dd" stroke="transparent" points="1248.07,-378.24 1248.07,-438.24 1696.07,-438.24 1696.07,-378.24 1248.07,-378.24"/>
<polygon fill="none" stroke="#29235c" points="1248.07,-378.24 1248.07,-438.24 1696.07,-438.24 1696.07,-378.24 1248.07,-378.24"/>
<text text-anchor="start" x="1259.07" y="-398.44" font-family="Helvetica,sans-Serif" font-size="32.00" fill="#29235c">OrdinateurID &#160;&#160;&#160;</text>
<text text-anchor="start" x="1633.53" y="-399.44" font-family="Helvetica,sans-Serif" font-style="italic" font-size="32.00" fill="#29235c">INT</text>
<polygon fill="#e7e2dd" stroke="transparent" points="1248.07,-318.24 1248.07,-378.24 1696.07,-378.24 1696.07,-318.24 1248.07,-318.24"/>
<polygon fill="none" stroke="#29235c" points="1248.07,-318.24 1248.07,-378.24 1696.07,-378.24 1696.07,-318.24 1248.07,-318.24"/>
<text text-anchor="start" x="1258.78" y="-338.44" font-family="Helvetica,sans-Serif" font-size="32.00" fill="#29235c">Description &#160;&#160;&#160;</text>
<text text-anchor="start" x="1454.02" y="-339.44" font-family="Helvetica,sans-Serif" font-style="italic" font-size="32.00" fill="#29235c">VARCHAR(250)</text>
<polygon fill="#e7e2dd" stroke="transparent" points="1248.07,-258.24 1248.07,-318.24 1696.07,-318.24 1696.07,-258.24 1248.07,-258.24"/>
<polygon fill="none" stroke="#29235c" points="1248.07,-258.24 1248.07,-318.24 1696.07,-318.24 1696.07,-258.24 1248.07,-258.24"/>
<text text-anchor="start" x="1259.07" y="-278.44" font-family="Helvetica,sans-Serif" font-size="32.00" fill="#29235c">Action &#160;&#160;&#160;</text>
<text text-anchor="start" x="1453.97" y="-279.44" font-family="Helvetica,sans-Serif" font-style="italic" font-size="32.00" fill="#29235c">VARCHAR(100)</text>
<polygon fill="#e7e2dd" stroke="transparent" points="1248.07,-198.24 1248.07,-258.24 1696.07,-258.24 1696.07,-198.24 1248.07,-198.24"/>
<polygon fill="none" stroke="#29235c" points="1248.07,-198.24 1248.07,-258.24 1696.07,-258.24 1696.07,-198.24 1248.07,-198.24"/>
<text text-anchor="start" x="1259.07" y="-218.44" font-family="Helvetica,sans-Serif" font-size="32.00" fill="#29235c">DateAction &#160;&#160;&#160;</text>
<text text-anchor="start" x="1498.41" y="-219.44" font-family="Helvetica,sans-Serif" font-style="italic" font-size="32.00" fill="#29235c">TIMESTAMP</text>
<polygon fill="none" stroke="#29235c" stroke-width="2" points="1247.07,-197.24 1247.07,-559.24 1697.07,-559.24 1697.07,-197.24 1247.07,-197.24"/>
</g>
<!-- Ordinateurs&#45;&gt;Maintenance -->
<!-- Ordinateurs&#45;&gt;Maintenance -->
<g id="edge6" class="edge">
<title>Ordinateurs:e&#45;&gt;Maintenance:w</title>
<path fill="none" stroke="#29235c" stroke-width="3" d="M1029.9,-492.24C1129.95,-492.24 1142.8,-413.73 1237.06,-408.51"/>
<polygon fill="#29235c" stroke="#29235c" stroke-width="3" points="1237.17,-412.01 1247.07,-408.24 1236.98,-405.01 1237.17,-412.01"/>
<text text-anchor="middle" x="1253.29" y="-379.44" font-family="Helvetica,sans-Serif" font-size="32.00" fill="#29235c">*</text>
<text text-anchor="middle" x="1038.8" y="-463.44" font-family="Helvetica,sans-Serif" font-size="32.00" fill="#29235c">1</text>
</g>
<!-- Logiciels -->
<g id="Logiciels" class="node">
<title>Logiciels</title>
<ellipse fill="none" stroke="black" stroke-width="0" cx="861.9" cy="-856.24" rx="254.62" ry="130.22"/>
<polygon fill="#1d71b8" stroke="transparent" points="683.9,-886.24 683.9,-946.24 1039.9,-946.24 1039.9,-886.24 683.9,-886.24"/>
<polygon fill="none" stroke="#29235c" points="683.9,-886.24 683.9,-946.24 1039.9,-946.24 1039.9,-886.24 683.9,-886.24"/>
<text text-anchor="start" x="737.42" y="-907.44" font-family="Helvetica,sans-Serif" font-weight="bold" font-size="32.00" fill="#ffffff"> &#160;&#160;&#160;&#160;&#160;&#160;Logiciels &#160;&#160;&#160;&#160;&#160;&#160;</text>
<polygon fill="#e7e2dd" stroke="transparent" points="683.9,-826.24 683.9,-886.24 1039.9,-886.24 1039.9,-826.24 683.9,-826.24"/>
<polygon fill="none" stroke="#29235c" points="683.9,-826.24 683.9,-886.24 1039.9,-886.24 1039.9,-826.24 683.9,-826.24"/>
<text text-anchor="start" x="694.9" y="-847.44" font-family="Helvetica,sans-Serif" font-weight="bold" font-size="32.00" fill="#29235c">LogicielID</text>
<text text-anchor="start" x="835.35" y="-847.44" font-family="Helvetica,sans-Serif" font-size="32.00" fill="#29235c"> &#160;&#160;&#160;</text>
<text text-anchor="start" x="977.36" y="-847.44" font-family="Helvetica,sans-Serif" font-style="italic" font-size="32.00" fill="#29235c">INT</text>
<polygon fill="#e7e2dd" stroke="transparent" points="683.9,-766.24 683.9,-826.24 1039.9,-826.24 1039.9,-766.24 683.9,-766.24"/>
<polygon fill="none" stroke="#29235c" points="683.9,-766.24 683.9,-826.24 1039.9,-826.24 1039.9,-766.24 683.9,-766.24"/>
<text text-anchor="start" x="694.84" y="-786.44" font-family="Helvetica,sans-Serif" font-size="32.00" fill="#29235c">Nom &#160;&#160;&#160;</text>
<text text-anchor="start" x="797.85" y="-787.44" font-family="Helvetica,sans-Serif" font-style="italic" font-size="32.00" fill="#29235c">VARCHAR(200)</text>
<polygon fill="none" stroke="#29235c" stroke-width="2" points="682.9,-765.24 682.9,-947.24 1040.9,-947.24 1040.9,-765.24 682.9,-765.24"/>
</g>
<!-- Logiciels&#45;&gt;Logiciels_Installes -->
<!-- Logiciels&#45;&gt;Logiciels_Installes -->
<g id="edge2" class="edge">
<title>Logiciels:e&#45;&gt;Logiciels_Installes:w</title>
<path fill="none" stroke="#29235c" stroke-width="3" d="M1040.9,-856.24C1151.63,-856.24 1153.85,-743.4 1258.01,-736.56"/>
<polygon fill="#29235c" stroke="#29235c" stroke-width="3" points="1258.19,-740.06 1268.07,-736.24 1257.96,-733.06 1258.19,-740.06"/>
<text text-anchor="middle" x="1274.29" y="-707.44" font-family="Helvetica,sans-Serif" font-size="32.00" fill="#29235c">*</text>
<text text-anchor="middle" x="1032.01" y="-827.44" font-family="Helvetica,sans-Serif" font-size="32.00" fill="#29235c">1</text>
</g>
<!-- Marques -->
<g id="Marques" class="node">
<title>Marques</title>
<ellipse fill="none" stroke="black" stroke-width="0" cx="285.67" cy="-257.24" rx="254.62" ry="130.22"/>
<polygon fill="#1d71b8" stroke="transparent" points="107.67,-287.24 107.67,-347.24 463.67,-347.24 463.67,-287.24 107.67,-287.24"/>
<polygon fill="none" stroke="#29235c" points="107.67,-287.24 107.67,-347.24 463.67,-347.24 463.67,-287.24 107.67,-287.24"/>
<text text-anchor="start" x="161.19" y="-308.44" font-family="Helvetica,sans-Serif" font-weight="bold" font-size="32.00" fill="#ffffff"> &#160;&#160;&#160;&#160;&#160;&#160;Marques &#160;&#160;&#160;&#160;&#160;&#160;</text>
<polygon fill="#e7e2dd" stroke="transparent" points="107.67,-227.24 107.67,-287.24 463.67,-287.24 463.67,-227.24 107.67,-227.24"/>
<polygon fill="none" stroke="#29235c" points="107.67,-227.24 107.67,-287.24 463.67,-287.24 463.67,-227.24 107.67,-227.24"/>
<text text-anchor="start" x="118.67" y="-248.44" font-family="Helvetica,sans-Serif" font-weight="bold" font-size="32.00" fill="#29235c">MarqueID</text>
<text text-anchor="start" x="259.13" y="-248.44" font-family="Helvetica,sans-Serif" font-size="32.00" fill="#29235c"> &#160;&#160;&#160;</text>
<text text-anchor="start" x="401.13" y="-248.44" font-family="Helvetica,sans-Serif" font-style="italic" font-size="32.00" fill="#29235c">INT</text>
<polygon fill="#e7e2dd" stroke="transparent" points="107.67,-167.24 107.67,-227.24 463.67,-227.24 463.67,-167.24 107.67,-167.24"/>
<polygon fill="none" stroke="#29235c" points="107.67,-167.24 107.67,-227.24 463.67,-227.24 463.67,-167.24 107.67,-167.24"/>
<text text-anchor="start" x="118.61" y="-187.44" font-family="Helvetica,sans-Serif" font-size="32.00" fill="#29235c">Nom &#160;&#160;&#160;</text>
<text text-anchor="start" x="221.62" y="-188.44" font-family="Helvetica,sans-Serif" font-style="italic" font-size="32.00" fill="#29235c">VARCHAR(200)</text>
<polygon fill="none" stroke="#29235c" stroke-width="2" points="106.67,-166.24 106.67,-348.24 464.67,-348.24 464.67,-166.24 106.67,-166.24"/>
</g>
<!-- Marques&#45;&gt;Ordinateurs -->
<!-- Marques&#45;&gt;Ordinateurs -->
<g id="edge10" class="edge">
<title>Marques:e&#45;&gt;Ordinateurs:w</title>
<path fill="none" stroke="#29235c" stroke-width="3" d="M464.67,-257.24C575.2,-257.24 579.74,-365.38 683.85,-371.93"/>
<polygon fill="#29235c" stroke="#29235c" stroke-width="3" points="683.8,-375.43 693.9,-372.24 684.01,-368.43 683.8,-375.43"/>
<text text-anchor="middle" x="700.12" y="-343.44" font-family="Helvetica,sans-Serif" font-size="32.00" fill="#29235c">*</text>
<text text-anchor="middle" x="455.78" y="-228.44" font-family="Helvetica,sans-Serif" font-size="32.00" fill="#29235c">1</text>
</g>
<!-- Users -->
<g id="Users" class="node">
<title>Users</title>
<ellipse fill="none" stroke="black" stroke-width="0" cx="285.67" cy="-578.24" rx="285.84" ry="172.57"/>
<polygon fill="#1d71b8" stroke="transparent" points="85.67,-638.24 85.67,-698.24 485.67,-698.24 485.67,-638.24 85.67,-638.24"/>
<polygon fill="none" stroke="#29235c" points="85.67,-638.24 85.67,-698.24 485.67,-698.24 485.67,-638.24 85.67,-638.24"/>
<text text-anchor="start" x="181.65" y="-659.44" font-family="Helvetica,sans-Serif" font-weight="bold" font-size="32.00" fill="#ffffff"> &#160;&#160;&#160;&#160;&#160;&#160;Users &#160;&#160;&#160;&#160;&#160;&#160;</text>
<polygon fill="#e7e2dd" stroke="transparent" points="85.67,-578.24 85.67,-638.24 485.67,-638.24 485.67,-578.24 85.67,-578.24"/>
<polygon fill="none" stroke="#29235c" points="85.67,-578.24 85.67,-638.24 485.67,-638.24 485.67,-578.24 85.67,-578.24"/>
<text text-anchor="start" x="96.67" y="-599.44" font-family="Helvetica,sans-Serif" font-weight="bold" font-size="32.00" fill="#29235c">UserID</text>
<text text-anchor="start" x="196.21" y="-599.44" font-family="Helvetica,sans-Serif" font-size="32.00" fill="#29235c"> &#160;&#160;&#160;</text>
<text text-anchor="start" x="423.13" y="-599.44" font-family="Helvetica,sans-Serif" font-style="italic" font-size="32.00" fill="#29235c">INT</text>
<polygon fill="#e7e2dd" stroke="transparent" points="85.67,-518.24 85.67,-578.24 485.67,-578.24 485.67,-518.24 85.67,-518.24"/>
<polygon fill="none" stroke="#29235c" points="85.67,-518.24 85.67,-578.24 485.67,-578.24 485.67,-518.24 85.67,-518.24"/>
<text text-anchor="start" x="96.67" y="-538.44" font-family="Helvetica,sans-Serif" font-size="32.00" fill="#29235c">Nom &#160;&#160;&#160;</text>
<text text-anchor="start" x="243.57" y="-539.44" font-family="Helvetica,sans-Serif" font-style="italic" font-size="32.00" fill="#29235c">VARCHAR(200)</text>
<polygon fill="#e7e2dd" stroke="transparent" points="85.67,-458.24 85.67,-518.24 485.67,-518.24 485.67,-458.24 85.67,-458.24"/>
<polygon fill="none" stroke="#29235c" points="85.67,-458.24 85.67,-518.24 485.67,-518.24 485.67,-458.24 85.67,-458.24"/>
<text text-anchor="start" x="96.38" y="-478.44" font-family="Helvetica,sans-Serif" font-size="32.00" fill="#29235c">Prenom &#160;&#160;&#160;</text>
<text text-anchor="start" x="243.62" y="-479.44" font-family="Helvetica,sans-Serif" font-style="italic" font-size="32.00" fill="#29235c">VARCHAR(200)</text>
<polygon fill="none" stroke="#29235c" stroke-width="2" points="84.67,-457.24 84.67,-699.24 486.67,-699.24 486.67,-457.24 84.67,-457.24"/>
</g>
<!-- Users&#45;&gt;Ordinateurs -->
<!-- Users&#45;&gt;Ordinateurs -->
<g id="edge8" class="edge">
<title>Users:e&#45;&gt;Ordinateurs:w</title>
<path fill="none" stroke="#29235c" stroke-width="3" d="M486.67,-608.24C603.97,-608.24 574.95,-442.4 683.67,-432.68"/>
<polygon fill="#29235c" stroke="#29235c" stroke-width="3" points="684.06,-436.17 693.9,-432.24 683.76,-429.18 684.06,-436.17"/>
<text text-anchor="middle" x="700.12" y="-403.44" font-family="Helvetica,sans-Serif" font-size="32.00" fill="#29235c">*</text>
<text text-anchor="middle" x="477.78" y="-579.44" font-family="Helvetica,sans-Serif" font-size="32.00" fill="#29235c">1</text>
</g>
</g>
</svg>
